<svg xmlns="http://www.w3.org/2000/svg" width="55" height="36" viewBox="0 0 55 36">
  <metadata><?xpacket begin="﻿" id="W5M0MpCehiHzreSzNTczkc9d"?>
<x:xmpmeta xmlns:x="adobe:ns:meta/" x:xmptk="Adobe XMP Core 5.6-c140 79.160451, 2017/05/06-01:08:21        ">
   <rdf:RDF xmlns:rdf="http://www.w3.org/1999/02/22-rdf-syntax-ns#">
      <rdf:Description rdf:about=""/>
   </rdf:RDF>
</x:xmpmeta>
                                                                                                    
                                                                                                    
                                                                                                    
                                                                                                    
                                                                                                    
                                                                                                    
                                                                                                    
                                                                                                    
                                                                                                    
                                                                                                    
                                                                                                    
                                                                                                    
                                                                                                    
                                                                                                    
                                                                                                    
                                                                                                    
                                                                                                    
                                                                                                    
                                                                                                    
                                                                                                    
                           
<?xpacket end="w"?></metadata>
<defs>
    <style>
      .cls-1 {
        fill: #9898ab;
        fill-rule: evenodd;
      }
    </style>
  </defs>
  <path id="buying_car" class="cls-1" d="M569.591,1924.49c-0.038-.04-0.068-0.08-0.112-0.12l-1.927-1.86c1.6-.37,3.319-1.7,3.319-3.08,0-1.6-2.221-2.17-4.117-2.17a2.033,2.033,0,0,0-2.237,2.32l-4.972-4.79a7.023,7.023,0,0,0-4.358-1.79H535.812a7.023,7.023,0,0,0-4.358,1.79l-4.971,4.79a2.034,2.034,0,0,0-2.237-2.32c-1.9,0-4.118.57-4.118,2.17,0,1.38,1.722,2.71,3.32,3.08l-1.927,1.86c-0.044.04-.074,0.08-0.112,0.12A10.812,10.812,0,0,0,518,1931.9v7.05a6.434,6.434,0,0,0,1.764,4.42v2.73a2.946,2.946,0,0,0,2.984,2.9h3.607a2.944,2.944,0,0,0,2.983-2.9v-0.7h32.323v0.7a2.944,2.944,0,0,0,2.984,2.9h3.606a2.944,2.944,0,0,0,2.983-2.9v-2.73a6.435,6.435,0,0,0,1.765-4.42v-7.05A10.806,10.806,0,0,0,569.591,1924.49Zm-36.311-7.57a4.919,4.919,0,0,1,2.532-1.03h19.376a4.919,4.919,0,0,1,2.531,1.03l6.52,6.32H526.761Zm-13.043,13.91a3.085,3.085,0,0,1,3.035-3.14c1.676,0,7.152,3.21,7.152,4.95s-5.476,1.33-7.152,1.33A3.085,3.085,0,0,1,520.237,1930.83Zm9.1,11.48h-1.157l-3.429.01a6.642,6.642,0,0,1-2.1-1.02,2.932,2.932,0,0,1-.567-0.58,2.032,2.032,0,0,1-.319-0.58,2.651,2.651,0,0,1,.455-2.31h5.853l3.9,4.48H529.34Zm24.575,0h-16.83a3.178,3.178,0,0,1-3.179-3.18h23.188A3.178,3.178,0,0,1,553.915,1942.31Zm0.739-5.34H536.346c-1.908,0-3.457-2.36-3.457-5.26h25.223C558.112,1934.61,556.562,1936.97,554.654,1936.97Zm14.577,3.17a2.257,2.257,0,0,1-.32.59,2.82,2.82,0,0,1-.567.57,6.609,6.609,0,0,1-2.1,1.02l-3.428-.01h-3.8l3.9-4.48h5.852A2.65,2.65,0,0,1,569.231,1940.14Zm-1.5-6.17c-1.675,0-7.152.4-7.152-1.33s5.477-4.95,7.152-4.95A3.142,3.142,0,0,1,567.727,1933.97Z" transform="translate(-518 -1913)"/>
</svg>
