<svg xmlns="http://www.w3.org/2000/svg" width="40.06" height="46" viewBox="0 0 40.06 46">
  <metadata><?xpacket begin="﻿" id="W5M0MpCehiHzreSzNTczkc9d"?>
<x:xmpmeta xmlns:x="adobe:ns:meta/" x:xmptk="Adobe XMP Core 5.6-c140 79.160451, 2017/05/06-01:08:21        ">
   <rdf:RDF xmlns:rdf="http://www.w3.org/1999/02/22-rdf-syntax-ns#">
      <rdf:Description rdf:about=""/>
   </rdf:RDF>
</x:xmpmeta>
                                                                                                    
                                                                                                    
                                                                                                    
                                                                                                    
                                                                                                    
                                                                                                    
                                                                                                    
                                                                                                    
                                                                                                    
                                                                                                    
                                                                                                    
                                                                                                    
                                                                                                    
                                                                                                    
                                                                                                    
                                                                                                    
                                                                                                    
                                                                                                    
                                                                                                    
                                                                                                    
                           
<?xpacket end="w"?></metadata>
<defs>
    <style>
      .cls-1 {
        fill: #9898ab;
        fill-rule: evenodd;
      }
    </style>
  </defs>
  <path id="cargo" class="cls-1" d="M1555.94,1915.07a0.84,0.84,0,0,0-.67-0.77,50.257,50.257,0,0,1-18.54-8.14,0.857,0.857,0,0,0-.99-0.03l-0.2.14a0.142,0.142,0,0,1-.04.02,51.673,51.673,0,0,1-18.76,8.15,0.839,0.839,0,0,0-.68.77,39.032,39.032,0,0,0,9.21,27.66,41.606,41.606,0,0,0,10.31,9.02,0.857,0.857,0,0,0,.41.1,0.916,0.916,0,0,0,.43-0.11,0.922,0.922,0,0,1,.08-0.05C1538.16,1950.89,1557.36,1939.44,1555.94,1915.07ZM1536,1950.2c-2.86-1.81-19.19-13.06-18.29-34.27a54.007,54.007,0,0,0,18.49-8.1,51.672,51.672,0,0,0,18.1,7.96C1555.23,1937.51,1538.74,1948.52,1536,1950.2Zm0.19-40.15v37.66c1.86-1.13,17.26-11.03,16.12-30.57A43.25,43.25,0,0,1,1536.19,1910.05Z" transform="translate(-1515.97 -1906)"/>
</svg>
