<svg xmlns="http://www.w3.org/2000/svg" width="43" height="41.97" viewBox="0 0 43 41.97">
  <metadata><?xpacket begin="﻿" id="W5M0MpCehiHzreSzNTczkc9d"?>
<x:xmpmeta xmlns:x="adobe:ns:meta/" x:xmptk="Adobe XMP Core 5.6-c140 79.160451, 2017/05/06-01:08:21        ">
   <rdf:RDF xmlns:rdf="http://www.w3.org/1999/02/22-rdf-syntax-ns#">
      <rdf:Description rdf:about=""/>
   </rdf:RDF>
</x:xmpmeta>
                                                                                                    
                                                                                                    
                                                                                                    
                                                                                                    
                                                                                                    
                                                                                                    
                                                                                                    
                                                                                                    
                                                                                                    
                                                                                                    
                                                                                                    
                                                                                                    
                                                                                                    
                                                                                                    
                                                                                                    
                                                                                                    
                                                                                                    
                                                                                                    
                                                                                                    
                                                                                                    
                           
<?xpacket end="w"?></metadata>
<defs>
    <style>
      .cls-1 {
        fill: #9898ab;
        fill-rule: evenodd;
      }
    </style>
  </defs>
  <path id="int_track" class="cls-1" d="M882.31,1945.16a28.3,28.3,0,0,1-6.668,2.77c-3.206,1.03-6.49,1.9-9.021,2.57-0.459.12-.441,0.32,0.04,0.42a17.253,17.253,0,0,0,4.608-.31C875.424,1949.83,880.145,1947.52,882.31,1945.16Zm-32.843-26.77c1.726-2.11,5.939-3.55,15.35-6.16,3.181-.88,5.929-1.62,6.5-2.32,0.3-.37-0.058-0.6-0.771-0.73a11.239,11.239,0,0,0-1.728-.16A22.257,22.257,0,0,0,849.467,1918.39Zm23.83-8.78c1.019,0.35,3.721,1.26.313,2.92a52.423,52.423,0,0,1-7.342,2.49c-10.682,3.04-17.791,5.26-19.208,8.26a20.471,20.471,0,0,0-1.059,5.64c0.536-2.93,5.787-5.43,20.069-9.54,10.566-3.05,15.994-5.26,12.471-7.56-0.383-.22-0.77-0.44-1.167-0.64A18.447,18.447,0,0,0,873.3,1909.61Zm9.527,5.51c2.1,2.48-2.067,4.87-15.37,8.8-13.189,3.9-21.295,7.04-20.952,10.62q0.236,1.02.571,2.01a20.3,20.3,0,0,0,1.305,3.02c0.046,0.09.093,0.18,0.141,0.26-1.09-3.26,5.395-5.96,19.02-10.19,13.186-4.1,20.071-6.92,18.7-10.08A18.823,18.823,0,0,0,882.824,1915.12Zm5.487,9.47c0.433,3.55-8.025,6.82-20.857,10.65-11.717,3.49-18.052,6.07-15.766,8.95,0.193,0.2.389,0.4,0.59,0.6a21.77,21.77,0,0,0,2.506,2.1c0.4,0.29.812,0.56,1.233,0.82-2.622-2.04.322-4.06,11.515-7.32,14.132-4.1,20.948-6.65,21.463-10.04,0-.15,0-0.3,0-0.46A19.173,19.173,0,0,0,888.311,1924.59Zm-0.2,11.31c-1.363,3.05-8.577,5.32-19.429,8.44-6.692,1.92-12.795,3.94-7.631,5.66a22.005,22.005,0,0,0,2.948.68c0.17,0.03.334,0.06,0.488,0.08-0.41-.13-1.5-0.6-1.1-1.03,0.7-.72,3.3-1.44,6.909-2.45,9.365-2.62,13.821-4.15,15.478-6.29A20.63,20.63,0,0,0,888.112,1935.9Z" transform="translate(-846 -1909.03)"/>
</svg>
