<svg xmlns="http://www.w3.org/2000/svg" width="44" height="43" viewBox="0 0 44 43">
  <metadata><?xpacket begin="﻿" id="W5M0MpCehiHzreSzNTczkc9d"?>
<x:xmpmeta xmlns:x="adobe:ns:meta/" x:xmptk="Adobe XMP Core 5.6-c140 79.160451, 2017/05/06-01:08:21        ">
   <rdf:RDF xmlns:rdf="http://www.w3.org/1999/02/22-rdf-syntax-ns#">
      <rdf:Description rdf:about=""/>
   </rdf:RDF>
</x:xmpmeta>
                                                                                                    
                                                                                                    
                                                                                                    
                                                                                                    
                                                                                                    
                                                                                                    
                                                                                                    
                                                                                                    
                                                                                                    
                                                                                                    
                                                                                                    
                                                                                                    
                                                                                                    
                                                                                                    
                                                                                                    
                                                                                                    
                                                                                                    
                                                                                                    
                                                                                                    
                                                                                                    
                           
<?xpacket end="w"?></metadata>
<defs>
    <style>
      .cls-1 {
        fill: #9898ab;
        fill-rule: evenodd;
      }
    </style>
  </defs>
  <path id="ocean_transp" class="cls-1" d="M1209.8,1929.5l-7.24,5.48,3.16,1.13a18.808,18.808,0,0,1-14.61,9.22v-18.71h4.31v-3.22h-4.31v-3.97a5.916,5.916,0,1,0-3.37,0v3.97h-4.32v3.22h4.32v18.71c-6.72-.59-12.27-5.14-15.08-10.86l3.31-1.21-6.67-5.84-2.3,8.95,3.79-1.21a18.516,18.516,0,0,0,18.63,15.83,18.759,18.759,0,0,0,18.26-14.1l3.31,1.54Zm-20.38-12.85a2.81,2.81,0,1,1,2.85-2.81,2.834,2.834,0,0,1-2.85,2.81h0Zm0-.6" transform="translate(-1167 -1908)"/>
</svg>
